<?xml version="1.0" encoding="UTF-8" standalone="no"?>
<!-- Created with Inkscape (http://www.inkscape.org/) -->

<svg
   width="190mm"
   height="190mm"
   viewBox="0 0 190 190"
   version="1.1"
   id="svg1"
   inkscape:export-filename="favicon.ico"
   inkscape:export-xdpi="96"
   inkscape:export-ydpi="96"
   xmlns:inkscape="http://www.inkscape.org/namespaces/inkscape"
   xmlns:sodipodi="http://sodipodi.sourceforge.net/DTD/sodipodi-0.dtd"
   xmlns="http://www.w3.org/2000/svg"
   xmlns:svg="http://www.w3.org/2000/svg">
  <style
     id="style5">
.measure-arrow
{
}
.measure-label
{

}
.measure-line
{
}</style>
  <sodipodi:namedview
     id="namedview1"
     pagecolor="#ffffff"
     bordercolor="#000000"
     borderopacity="0.25"
     inkscape:showpageshadow="2"
     inkscape:pageopacity="0.0"
     inkscape:pagecheckerboard="0"
     inkscape:deskcolor="#d1d1d1"
     inkscape:document-units="mm">
    <inkscape:page
       x="0"
       y="0"
       width="190"
       height="190"
       id="page2"
       margin="0"
       bleed="0" />
  </sodipodi:namedview>
  <defs
     id="defs1">
    <inkscape:path-effect
       effect="fillet_chamfer"
       id="path-effect16"
       is_visible="true"
       lpeversion="1"
       nodesatellites_param="F,0,0,1,0,0,0,1 @ F,0,0,1,0,48.453049,0,1 @ F,0,0,1,0,50.224571,0,1 @ F,0,0,1,0,20.723627,0,1 @ F,0,0,1,0,20.003603,0,1 @ F,0,0,1,0,14.777408,0,1 @ F,0,0,1,0,14.024908,0,1 @ F,0,0,1,0,47.788509,0,1 @ F,0,0,1,0,50.856047,0,1 @ F,0,0,1,0,21.781304,0,1 @ F,0,0,1,0,19.331475,0,1 @ F,0,0,1,0,0,0,1"
       radius="0"
       unit="px"
       method="auto"
       mode="F"
       chamfer_steps="1"
       flexible="false"
       use_knot_distance="true"
       apply_no_radius="true"
       apply_with_radius="true"
       only_selected="false"
       hide_knots="false" />
    <inkscape:path-effect
       effect="fillet_chamfer"
       id="path-effect16-7"
       is_visible="true"
       lpeversion="1"
       nodesatellites_param="F,0,0,1,0,0,0,1 @ F,0,0,1,0,48.453049,0,1 @ F,0,0,1,0,50.224571,0,1 @ F,0,0,1,0,20.723627,0,1 @ F,0,0,1,0,20.003603,0,1 @ F,0,0,1,0,0,0,1 @ F,0,0,1,0,0,0,1 @ F,0,0,1,0,47.788509,0,1 @ F,0,0,1,0,50.856047,0,1 @ F,0,0,1,0,21.781304,0,1 @ F,0,0,1,0,19.331475,0,1 @ F,0,0,1,0,0,0,1"
       radius="0"
       unit="px"
       method="auto"
       mode="F"
       chamfer_steps="1"
       flexible="false"
       use_knot_distance="true"
       apply_no_radius="true"
       apply_with_radius="true"
       only_selected="false"
       hide_knots="false" />
  </defs>
  <g
     inkscape:label="Camada 1"
     inkscape:groupmode="layer"
     id="layer1">
    <g
       id="g17"
       transform="translate(-36.402197,-60.501009)">
      <path
         style="fill:#000000;fill-opacity:0.0769768;stroke:none;stroke-width:0.265;stroke-dasharray:none;stroke-opacity:1"
         d="m 70.268233,224 137.278797,0.2444 A 48.366864,48.366864 135.051 0 0 256,175.87761 v -0.65304 A 50.224571,50.224571 45 0 0 205.77543,125 h -5.0518 A 20.723627,20.723627 45 0 1 180,104.27637 V 104.0036 A 20.003603,20.003603 135 0 1 200.0036,84 H 256 V 55 H 198.78851 A 47.788509,47.788509 135 0 0 151,102.78851 v 0.35544 A 50.856047,50.856047 45 0 0 201.85605,154 h 3.36265 A 21.781304,21.781304 45 0 1 227,175.7813 19.275168,19.275168 135.16762 0 1 207.66852,195 l -137.400287,0 z"
         id="path5-3"
         sodipodi:nodetypes="ccccccccccccc"
         inkscape:label="path5"
         inkscape:path-effect="#path-effect16-7"
         inkscape:original-d="M 70.268233,224 256,224.33066 V 125 H 180 V 84 h 76 V 55 H 151 v 99 h 76 v 41 H 70.268233 Z"
         transform="translate(-33.483033,18.345244)" />
      <path
         d="M 36.402197,73.344988 V 242.67574 c 0,0 0.13773,0.21498 18.08572,0.21498 26.31645,0 97.913923,-1.35099 97.913923,-81.75522 0,-87.557634 -87.899543,-87.790512 -87.899543,-87.790512 z m 28.99978,29.000302 h 8.79068 c 0,0 49.209403,1.76795 49.209403,57.16344 0,53.56788 -48.407663,53.32783 -48.654913,53.32697 l -9.34517,-0.0326 z"
         style="fill:#000000;fill-opacity:0.0769768;stroke:none;stroke-width:0.264583"
         id="path17-5" />
    </g>
    <path
       style="fill:#0d7aff;fill-opacity:1;stroke:none;stroke-width:0.265;stroke-dasharray:none;stroke-opacity:1"
       d="m 70.268233,224 137.278797,0.2444 A 48.366864,48.366864 135.051 0 0 256,175.87761 v -0.65304 A 50.224571,50.224571 45 0 0 205.77543,125 h -5.0518 A 20.723627,20.723627 45 0 1 180,104.27637 V 104.0036 A 20.003603,20.003603 135 0 1 200.0036,84 h 41.21899 A 14.777408,14.777408 135 0 0 256,69.222592 V 69.024908 A 14.024908,14.024908 45 0 0 241.97509,55 H 198.78851 A 47.788509,47.788509 135 0 0 151,102.78851 v 0.35544 A 50.856047,50.856047 45 0 0 201.85605,154 h 3.36265 A 21.781304,21.781304 45 0 1 227,175.7813 19.275168,19.275168 135.16762 0 1 207.66852,195 l -137.400287,0 z"
       id="path5"
       sodipodi:nodetypes="ccccccccccccc"
       inkscape:label="path5"
       inkscape:path-effect="#path-effect16"
       inkscape:original-d="M 70.268233,224 256,224.33066 V 125 H 180 V 84 h 76 V 55 H 151 v 99 h 76 v 41 H 70.268233 Z"
       transform="translate(-66.287288,-46.999744)" />
    <path
       d="m 3.5979452,8 v 169.33075 c 0,0 0.137728,0.21498 18.0857178,0.21498 26.316449,0 97.913917,-1.35099 97.913917,-81.755224 C 119.59758,8.232878 31.698039,8 31.698039,8 Z M 32.597726,37.000297 h 8.790676 c 0,0 49.2094,1.767952 49.2094,57.163439 0,53.567884 -48.40766,53.327834 -48.65491,53.326974 l -9.345166,-0.0326 z"
       style="fill:#0d7aff;fill-opacity:1;stroke:none;stroke-width:0.264583"
       id="path17" />
  </g>
</svg>
